<svg width="1170" height="248" viewBox="0 0 1170 248" fill="none" xmlns="http://www.w3.org/2000/svg">
<path d="M137.994 228.075H168.026V154.322H187.303C201.737 154.322 213.284 149.247 221.945 139.096C230.605 128.946 234.936 112.323 234.936 89.2285C234.936 62.9677 230.838 45.6467 222.643 37.2656C214.542 28.8845 203.46 24.694 189.398 24.694H137.994V228.075ZM168.026 119.68V61.0121H184.37C191.913 60.919 197.221 61.8502 200.294 63.8058C203.46 65.6683 205.043 74.7478 205.043 91.0444C205.043 103.616 203.506 111.532 200.433 114.791C197.36 118.05 191.959 119.68 184.23 119.68H168.026ZM209.792 228.075H242.618L217.056 138.537L184.928 135.325L209.792 228.075Z" fill="white"/>
<path d="M243.954 228.075H282.786L318.685 24.694H279.853L243.954 228.075Z" fill="white"/>
<path d="M323.652 63.3867H412.352V228.075H448.252V63.3867H536.952V24.694H323.652V63.3867Z" fill="white"/>
<path d="M531.023 228.075H608.13L610.225 148.734C610.225 147.71 610.271 141.983 610.365 131.553C610.458 121.03 610.504 115.489 610.504 114.931H611.482C611.668 115.489 612.087 121.03 612.739 131.553C613.484 142.076 613.903 147.803 613.996 148.734L626.149 228.075H696.55L709.401 149.852C709.494 149.107 709.913 143.38 710.658 132.671C711.403 121.961 711.869 115.815 712.055 114.232H713.173C713.173 115.815 713.08 121.961 712.893 132.671C712.8 143.38 712.754 149.153 712.754 149.992L714.709 228.075H782.596L769.326 24.694H677.134L657.997 98.1683C657.718 99.0996 657.345 100.683 656.88 102.918C656.414 105.059 656.135 106.317 656.042 106.689H655.622C655.436 106.317 655.064 105.013 654.505 102.778C654.039 100.45 653.667 98.9133 653.388 98.1683L634.949 24.694H544.293L531.023 228.075Z" fill="white"/>
<path d="M785.608 123.172C785.608 158.559 799.111 185.611 826.117 204.329C853.215 222.954 886.926 232.266 927.249 232.266C967.571 232.266 1001.33 222.954 1028.52 204.329C1055.81 185.611 1069.45 158.559 1069.45 123.172V126.943C1069.45 92.8603 1055.81 66.5995 1028.52 48.1611C1001.33 29.7226 967.571 20.5034 927.249 20.5034C886.926 20.5034 853.215 29.7226 826.117 48.1611C799.111 66.5995 785.608 92.8603 785.608 126.943V123.172ZM822.485 124.15V126.804C822.485 104.547 832.263 87.4126 851.819 75.3997C871.468 63.3867 896.704 57.4268 927.528 57.52C958.259 57.7062 983.449 63.7592 1003.1 75.679C1022.75 87.5057 1032.57 104.594 1032.57 126.943V124.429C1032.57 147.431 1022.7 165.171 1002.96 177.649C983.216 190.128 958.072 196.274 927.528 196.088C896.89 195.994 871.7 189.802 851.958 177.509C832.309 165.124 822.485 147.337 822.485 124.15Z" fill="white"/>
<path d="M1061.16 247.657C1097.01 248.682 1121.73 243.886 1135.33 233.27C1149.02 222.747 1152.32 206.497 1145.25 184.52L1138.26 164.405C1135.37 154.906 1136.96 148.62 1143.01 145.547C1149.06 142.474 1157.77 140.938 1169.13 140.938V106.855C1157.77 106.855 1149.02 105.318 1142.87 102.245C1136.72 99.172 1135.14 92.9327 1138.12 83.5272L1145.39 63.4126C1152.56 41.4354 1149.25 25.1388 1135.47 14.5228C1121.78 3.90671 1097.01 -0.889142 1061.16 0.135215V32.6818C1084.99 32.6818 1100.31 35.6618 1107.11 41.6217C1113.91 47.4885 1115.17 57.0336 1110.88 70.2571L1103.76 90.3718C1101.52 98.1942 1102.13 105.225 1105.58 111.464C1109.11 117.704 1115.4 121.847 1124.43 123.896C1115.4 125.945 1109.07 130.135 1105.44 136.468C1101.9 142.707 1101.38 149.691 1103.9 157.421L1110.88 177.535C1115.17 190.852 1113.91 200.444 1107.11 206.31C1100.31 212.27 1084.99 215.25 1061.16 215.25V247.657Z" fill="#FF7001"/>
<path d="M108.116 247.658V215.111C84.1836 215.111 68.8182 212.131 62.0202 206.171C55.3153 200.304 54.0581 190.759 58.2487 177.536L65.3726 157.421C67.887 149.692 67.3282 142.708 63.6964 136.468C60.0646 130.136 53.7322 125.945 44.6992 123.897C53.7322 121.848 60.1112 117.657 63.8361 111.325C67.561 104.993 68.0732 98.0083 65.3726 90.3722L58.3884 70.2575C54.1047 57.034 55.3153 47.4888 62.0202 41.6221C68.8182 35.6622 84.1836 32.6822 108.116 32.6822V0.135599C72.2638 -0.795636 47.4929 4.04678 33.8038 14.6628C20.2078 25.1858 16.9485 41.3893 24.0258 63.2733L31.0101 83.5276C33.8969 92.9331 32.2673 99.1723 26.1211 102.245C20.0681 105.318 11.3611 106.855 0 106.855V140.938C11.3611 140.938 20.1147 142.521 26.2608 145.687C32.4069 148.761 33.99 154.953 31.0101 164.266L23.8862 184.52C16.6225 206.497 19.8818 222.747 33.6641 233.27C47.4464 243.886 72.2638 248.682 108.116 247.658Z" fill="#FFFF64"/>
</svg>
