<svg width="40" height="40" viewBox="0 0 40 40" fill="none" xmlns="http://www.w3.org/2000/svg">
<rect width="40" height="40" rx="6" fill="#19C37D"/>
<path d="M23.7106 11.4835L22.575 12.3604C21.8059 11.3699 20.6257 10.8227 19.366 10.8788C17.296 10.9708 15.7085 12.7691 15.7085 14.841V19.2221L20.7397 22.1546L20.2606 22.9787L14.6515 19.7074C14.4157 19.5699 14.271 19.3179 14.271 19.0452V14.8827C14.271 11.8812 16.7286 9.33684 19.7287 9.44082C21.2999 9.49497 22.7427 10.2343 23.7106 11.4835Z" fill="white"/>
<path d="M15.1627 12.7117L15.3544 14.1334C14.1124 14.3044 13.0482 15.0529 12.4669 16.1717C11.5115 18.0103 12.2753 20.2839 14.0698 21.3204L17.8638 23.5106L22.919 20.6198L23.3934 21.4469L17.756 24.6688C17.5193 24.8039 17.2284 24.8034 16.9922 24.6674L13.3874 22.5863C10.7875 21.0851 9.81284 17.6845 11.4027 15.1386C12.2355 13.8046 13.5973 12.9254 15.1627 12.7117Z" fill="white"/>
<path d="M11.9521 20.7281L13.2794 21.2729C12.8065 22.4339 12.9225 23.7301 13.601 24.7929C14.7155 26.5394 17.0668 27.0152 18.8608 25.9793L22.6548 23.7885L22.6788 17.9652L23.6323 17.9681L23.604 24.4613C23.6031 24.7339 23.4569 24.9855 23.2207 25.122L19.6159 27.2031C17.0165 28.7038 13.5842 27.8475 12.174 25.1978C11.4356 23.8096 11.3546 22.191 11.9521 20.7281Z" fill="white"/>
<path d="M17.2896 27.5164L18.4252 26.6396C19.1942 27.63 20.3744 28.1772 21.6342 28.1212C23.7042 28.0292 25.2916 26.2308 25.2916 24.1589V19.7779L20.2604 16.8454L20.7396 16.0212L26.3487 19.2925C26.5844 19.43 26.7291 19.6821 26.7291 19.9547V24.1172C26.7291 27.1187 24.271 29.6631 21.2714 29.5596C19.7002 29.505 18.2575 28.7656 17.2896 27.5164Z" fill="white"/>
<path d="M25.8376 26.2883L25.6459 24.8666C26.8879 24.6956 27.9521 23.9471 28.5334 22.8283C29.4888 20.9897 28.725 18.7161 26.9306 17.6796L23.1365 15.4894L18.0813 18.3802L17.6069 17.5531L23.2443 14.3312C23.481 14.1961 23.7719 14.1966 24.0081 14.3326L27.6129 16.4137C30.2124 17.9144 31.187 21.3151 29.5971 23.8614C28.7648 25.1954 27.403 26.0746 25.8376 26.2883Z" fill="white"/>
<path d="M29.0478 18.2719L27.7206 17.727C28.1935 16.566 28.0775 15.2699 27.399 14.2071C26.2845 12.4605 23.9332 11.9847 22.1392 13.0207L18.3452 15.2114L18.3212 21.0347L17.3677 21.0319L17.3959 14.5387C17.3969 14.266 17.5431 14.0145 17.7793 13.8779L21.3841 11.7969C23.9835 10.2961 27.4158 11.1524 28.826 13.8022C29.5644 15.1903 29.6454 16.809 29.0478 18.2719Z" fill="white"/>
</svg>
