<svg width="40" height="40" viewBox="0 0 40 40" fill="none" xmlns="http://www.w3.org/2000/svg">
<rect width="40" height="40" rx="6" fill="#233940" fill-opacity="0.05"/>
<path d="M17.1144 26.3875H17.8737V20.9026H17.1144C16.695 20.9026 16.355 20.5626 16.355 20.1432V18.3294C16.355 17.91 16.695 17.57 17.1144 17.57H21.3669C21.7863 17.57 22.1262 17.91 22.1262 18.3294V26.3875H22.8856C23.305 26.3875 23.645 26.7275 23.645 27.1469V28.9607C23.645 29.3801 23.305 29.7201 22.8856 29.7201H17.1144C16.695 29.7201 16.355 29.3801 16.355 28.9607V27.1469C16.355 26.7275 16.695 26.3875 17.1144 26.3875ZM20 10.28C18.4902 10.28 17.2662 11.504 17.2662 13.0138C17.2662 14.5236 18.4902 15.7475 20 15.7475C21.5098 15.7475 22.7337 14.5236 22.7337 13.0138C22.7337 11.504 21.5098 10.28 20 10.28Z" fill="black"/>
</svg>
