<svg width="40" height="40" viewBox="0 0 40 40" fill="none" xmlns="http://www.w3.org/2000/svg">
<rect width="40" height="40" rx="6" fill="#EBECEC"/>
<path d="M17.8208 26.5229C17.8208 26.0428 17.9754 25.6318 18.2847 25.29C18.6021 24.9482 19.0537 24.7773 19.6396 24.7773C20.2337 24.7773 20.6854 24.9482 20.9946 25.29C21.312 25.6318 21.4707 26.0428 21.4707 26.5229C21.4707 27.0031 21.312 27.4141 20.9946 27.7559C20.6854 28.0895 20.2337 28.2563 19.6396 28.2563C19.0537 28.2563 18.6021 28.0895 18.2847 27.7559C17.9754 27.4141 17.8208 27.0031 17.8208 26.5229ZM14.708 15.0239V14.6333C14.708 13.1685 15.1922 12.0291 16.1606 11.2153C17.1372 10.3934 18.4149 9.98242 19.9937 9.98242C21.6538 9.98242 22.96 10.3853 23.9121 11.1909C24.8643 11.9884 25.3403 13.0098 25.3403 14.2549C25.3403 15.3861 25.0555 16.3057 24.4858 17.0137C23.9162 17.7217 23.2407 18.4012 22.4595 19.0522C21.7922 19.6056 21.3486 20.1753 21.1289 20.7612C20.9173 21.3472 20.8115 21.9982 20.8115 22.7144V22.873H18.3335V22.6899C18.3335 21.6808 18.48 20.8182 18.7729 20.1021C19.0659 19.3859 19.5786 18.6942 20.311 18.0269C20.9621 17.4409 21.4666 16.9038 21.8247 16.4155C22.1909 15.9191 22.374 15.2559 22.374 14.4258C22.374 13.6201 22.1706 12.9854 21.7637 12.5215C21.3649 12.0576 20.7749 11.8257 19.9937 11.8257C19.2287 11.8257 18.6265 12.0698 18.187 12.5581C17.7476 13.0464 17.5278 13.7585 17.5278 14.6943V15.0239H14.708Z" fill="black"/>
</svg>
