<?xml version="1.0" standalone="no"?>
<!DOCTYPE svg PUBLIC "-//W3C//DTD SVG 20010904//EN"
 "http://www.w3.org/TR/2001/REC-SVG-20010904/DTD/svg10.dtd">
<svg version="1.0" xmlns="http://www.w3.org/2000/svg"
 width="700.000000pt" height="700.000000pt" viewBox="0 0 700.000000 700.000000"
 preserveAspectRatio="xMidYMid meet">
<metadata>
Created by potrace 1.14, written by Peter Selinger 2001-2017
</metadata>
<g transform="translate(0.000000,700.000000) scale(0.100000,-0.100000)"
fill="#000000" stroke="none">
<path d="M3307 6344 c-1 -1 -58 -5 -126 -8 -69 -4 -127 -9 -130 -10 -3 -2 -33
-7 -66 -10 -48 -6 -187 -32 -315 -61 -123 -27 -341 -104 -508 -179 -84 -38
-107 -44 -123 -36 -23 13 -162 58 -199 65 -325 63 -656 -35 -888 -263 -31 -31
-71 -75 -87 -97 -17 -22 -33 -42 -36 -45 -14 -12 -80 -141 -108 -210 -69 -175
-83 -410 -34 -590 8 -30 25 -84 39 -120 l24 -66 -24 -49 c-159 -332 -246 -662
-281 -1065 -17 -188 4 -571 39 -735 2 -11 11 -56 20 -100 39 -193 142 -491
228 -659 18 -36 19 -41 4 -75 -143 -331 -88 -725 138 -1006 156 -192 369 -315
630 -360 42 -7 224 -8 266 -1 14 3 43 7 65 11 22 4 78 20 125 37 47 17 94 31
105 31 11 0 72 -24 135 -53 109 -50 401 -153 465 -163 17 -3 59 -12 95 -21
236 -55 603 -82 840 -61 141 12 295 33 370 49 14 3 34 8 45 10 204 43 464 132
645 220 l54 26 66 -24 c373 -141 767 -61 1046 211 223 218 331 530 290 835 -9
68 -43 192 -65 244 l-20 45 58 132 c114 258 196 547 226 793 4 33 9 67 11 76
21 117 20 506 -1 658 -2 14 -6 50 -10 80 -28 244 -132 594 -249 841 l-36 76
19 46 c39 90 54 152 69 278 34 285 -72 583 -283 794 -228 228 -547 330 -855
274 -109 -20 -153 -33 -216 -59 l-45 -20 -77 36 c-168 78 -350 143 -532 189
-96 25 -284 60 -371 69 -117 13 -423 27 -432 20z m-1536 -449 l40 -7 -88 -61
c-154 -107 -274 -207 -409 -341 -170 -171 -248 -264 -373 -446 -33 -48 -51
-67 -52 -54 0 10 -3 28 -5 39 -7 33 -8 188 -1 227 18 97 31 140 72 223 50 102
115 186 201 256 101 84 251 151 366 165 29 3 54 7 56 9 5 4 152 -3 193 -10z
m3529 -6 c342 -69 600 -383 603 -734 1 -49 -3 -112 -7 -138 l-7 -49 -61 89
c-202 297 -471 566 -766 768 l-94 64 49 6 c26 3 55 7 63 9 31 5 167 -4 220
-15z m-1615 -1107 c131 -29 205 -56 340 -122 278 -137 506 -366 640 -645 103
-214 146 -394 145 -620 0 -139 -8 -213 -35 -330 -58 -247 -192 -489 -373 -672
-200 -201 -436 -330 -720 -394 -122 -27 -374 -35 -502 -15 -567 89 -1030 508
-1166 1054 -34 136 -39 188 -38 372 0 235 37 396 137 600 205 422 579 700
1057 786 111 20 398 12 515 -14z m-2735 -3052 c185 -279 498 -592 778 -778
l85 -57 -34 -7 c-68 -16 -231 -12 -309 7 -310 75 -536 319 -587 635 -7 39 -6
194 1 225 2 11 5 29 5 40 1 23 5 19 61 -65z m4953 -59 c7 -193 -52 -370 -172
-516 -122 -148 -290 -243 -484 -272 -46 -7 -191 -6 -222 1 -11 2 -29 5 -39 5
-12 1 14 24 70 63 49 34 95 67 102 75 7 7 16 13 20 13 4 0 23 15 43 33 20 17
56 47 80 66 79 62 313 304 396 408 44 56 105 138 134 182 52 78 54 79 62 53 4
-15 9 -65 10 -111z"/>
</g>
</svg>
